<?xml version="1.0" encoding="utf-8"?><svg xmlns="http://www.w3.org/2000/svg" xmlns:xlink="http://www.w3.org/1999/xlink"><symbol viewBox="0 0 60 61" id="address" xmlns="http://www.w3.org/2000/svg"><defs><path id="aa" d="M292 5101.19a4 4 0 1 1 0 8 4 4 0 0 1 0-8zm-2 4a2 2 0 1 0 4 0 2 2 0 0 0-4 0zm-.13 43.54c-.28.47-.9.63-1.37.36a.95.95 0 0 1-.37-1.33l6-10.08c.21-.35.62-.53 1-.48H306a1 1 0 1 1 0 2h-10.46z"/><path id="ab" d="M314 5133.2a22 22 0 0 1-43.17 6.01l-7.58 1.97a1 1 0 1 1-.52-1.93l7.64-1.98a22 22 0 0 1 11.1-23.4l.92 1.78a20 20 0 0 0-10.07 21.11l38.62-10a20.07 20.07 0 0 0-9.33-11.1l.92-1.79a22.08 22.08 0 0 1 10.35 12.4l7.87-2.04a1 1 0 1 1 .52 1.93l-7.84 2.03c.37 1.61.57 3.29.57 5.01zm-22 20.01a20 20 0 0 0 19.49-24.52l-38.72 10.02a20.01 20.01 0 0 0 19.23 14.5zm8.64-43l-8.64 17-8.64-17a10 10 0 1 1 17.28 0zm-.64-5.02a8 8 0 1 0-15.11 3.66h-.01l7.12 14.35 7.12-14.35h-.01c.57-1.1.89-2.34.89-3.66z"/></defs><use xlink:href="#aa" transform="translate(-262 -5095)"/><use xlink:href="#ab" transform="translate(-262 -5095)"/></symbol><symbol viewBox="0 0 41 18" id="arrow-next" xmlns="http://www.w3.org/2000/svg"><defs><path id="ba" d="M1385 2527l-16 7.99V2528h-22v-2h22v-7z"/><clipPath id="bb"><use xlink:href="#ba"/></clipPath></defs><g transform="translate(-1346 -2518)"><use xlink:href="#ba"/><use fill-opacity="0" stroke-miterlimit="50" clip-path="url(#bb)" xlink:href="#ba"/></g></symbol><symbol viewBox="0 0 41 18" id="arrow-prev" xmlns="http://www.w3.org/2000/svg"><defs><path id="ca" d="M217 2527l16-8v7h22v2h-22v6.99z"/><path id="cb" d="M217 2527l16-8v7h22v2h-22v6.99z"/><clipPath id="cc"><use xlink:href="#ca"/></clipPath></defs><g transform="translate(-215 -2518)"><use xlink:href="#cb"/><use fill-opacity="0" stroke-miterlimit="50" clip-path="url(#cc)" xlink:href="#cb"/></g></symbol><symbol viewBox="0 0 32 40" id="document-2" xmlns="http://www.w3.org/2000/svg"><defs><path id="da" d="M347.71 1212H316v-40h22.46l9.25 9.33zm-9.25-36.63v5.96h5.9zm6.6 8.63h-9.24v-9.34h-17.18v34.67h26.43zm-3.95 8h-18.5v-2.67h18.5zm0 5.33h-18.5v-2.66h18.5zm0 5.34h-18.5V1200h18.5z"/></defs><use xlink:href="#da" transform="translate(-316 -1172)"/></symbol><symbol viewBox="0 0 48 41" id="heart" xmlns="http://www.w3.org/2000/svg"><defs><path id="ea" d="M575.97 1174.17c5.97 0 10.81 4.43 10.81 9.9 0 2.8-1.28 5.33-3.33 7.13L566 1207.86l-17.77-16.94a9.44 9.44 0 0 1-3.01-6.85c0-5.47 4.84-9.9 10.8-9.9 4.5 0 8.35 2.76 9.98 6.33a10.74 10.74 0 0 1 9.95-6.35c4.77 0 .02.02.02.02zm-9.97 1.54c-2.5-3.08-6.38-4.7-10.6-4.7-7.39 0-13.4 5.72-13.4 12.76 0 3.3 1.33 6.44 3.74 8.83l18.9 18.08 1.36 1.3 1.36-1.3 18.54-17.74c2.63-2.4 4.1-5.67 4.1-9.17 0-7.04-6.01-12.76-13.4-12.76-4.23 0-8.1 1.62-10.6 4.7z"/></defs><use xlink:href="#ea" transform="translate(-542 -1171)"/></symbol><symbol viewBox="0 0 60 47" id="mail" xmlns="http://www.w3.org/2000/svg"><defs><path id="fa" d="M1108 5148.2h-52a4 4 0 0 1-4-4v-35a1 1 0 0 1 2 0v35a2 2 0 0 0 2 2h52a2 2 0 0 0 2-2v-38a2 2 0 0 0-2-2h-55a1 1 0 1 1 0-2.01h55a4 4 0 0 1 4 4v38.02a4 4 0 0 1-4 4z"/><path id="fb" d="M1105.7 5108.47a1 1 0 0 1 0 1.42l-22.85 22.84a1 1 0 0 1-.85.46 1 1 0 0 1-.85-.46l-22.84-22.84a1 1 0 0 1 1.41-1.42l22.28 22.28 22.28-22.28a1 1 0 0 1 1.41 0z"/></defs><use xlink:href="#fa" transform="translate(-1052 -5102)"/><use xlink:href="#fb" transform="translate(-1052 -5102)"/></symbol><symbol viewBox="0 0 41 40" id="notebook" xmlns="http://www.w3.org/2000/svg"><defs><path id="ga" d="M1250.21 1212v-6.67h-2.67v-2.67h2.67v-5.33h-2.67v-2.67h2.67v-5.33h-2.67v-2.67h2.67v-5.33h-2.67v-2.67h2.67V1172h37.39v40zm34.72-37.34h-32.05v4h2.67v2.67h-2.67v5.33h2.67v2.67h-2.67v5.33h2.67v2.67h-2.67v5.33h2.67v2.67h-2.67v4h32.05zm-8.02 4v10.67h-16.02v-10.67zm-13.35 8h10.68v-5.33h-10.68z"/></defs><use xlink:href="#ga" transform="translate(-1247 -1172)"/></symbol><symbol viewBox="0 0 38 61" id="phone" xmlns="http://www.w3.org/2000/svg"><defs><path id="ha" d="M700 5095.19h30a4 4 0 0 1 4 4v52.02a4 4 0 0 1-4 4h-30a4 4 0 0 1-4-4v-52.02a4 4 0 0 1 4-4zm-2 4v44.02h29a1 1 0 1 1 0 2h-29v6c0 1.1.9 2 2 2h30a2 2 0 0 0 2-2v-44.02h-29a1 1 0 0 1 0-2h29v-6a2 2 0 0 0-2-2h-30a2 2 0 0 0-2 2z"/><path id="hb" d="M715 5147.2a2 2 0 1 1 0 4 2 2 0 0 1 0-4zm-3-47.01h6a1 1 0 0 1 0 2h-6a1 1 0 0 1 0-2zm-9.72 15.36l4.08-4.07a.96.96 0 0 1 1.36 1.36l-4.08 4.07a.96.96 0 1 1-1.36-1.36zm0 6l10.08-10.07a.96.96 0 0 1 1.36 1.36l-10.08 10.07a.96.96 0 0 1-1.36-1.35z"/></defs><use xlink:href="#ha" transform="translate(-696 -5095)"/><use xlink:href="#hb" transform="translate(-696 -5095)"/></symbol><symbol viewBox="0 0 40 40" id="shopping-bag" xmlns="http://www.w3.org/2000/svg"><defs><path id="ia" d="M1013.94 1212l2.67-40h34.72l2.67 40zm34.72-37.34h-29.38l-2.67 34.67h34.72zm-20.03 8h-1.34s-1.24 10.65 6.68 10.67c7.9.02 6.68-10.67 6.68-10.67h-1.34V1180h5.34v2.66h-1.33s1.96 13.31-9.35 13.34c-11.25.02-9.35-13.34-9.35-13.34h-1.33V1180h5.34z"/></defs><use xlink:href="#ia" transform="translate(-1014 -1172)"/></symbol><symbol viewBox="0 0 34 40" id="wedding-cake" xmlns="http://www.w3.org/2000/svg"><defs><path id="ja" d="M783 1212v-18.67h5.23v-10.67h10.48l-4.22-4.34a3.76 3.76 0 0 1-.43-4.6h-.03.03a3.62 3.62 0 0 1 3.06-1.72c1.14 0 2.2.48 2.88 1.38a3.54 3.54 0 0 1 2.88-1.38c1.29 0 2.4.68 3.06 1.71h.03-.03a3.76 3.76 0 0 1-.52 4.71l-4.13 4.24h10.48v10.67H817V1212zm14.54-37.32l-.29.02h.45l-.16-.02zm4.83 0l-.18.02h.5l-.32-.02zm1.55 1.7c0-.65-.22-1.6-1.22-1.68h-.51c-.67.1-1.2.48-2.19 1.34-1-.78-1.7-1.25-2.3-1.34h-.46c-1.01.09-1.2 1.27-1.16 1.71.07.68.47.86.85 1.26l3.07 3.08 2.94-2.91c.41-.4.98-.83.98-1.46zm5.23 8.95h-18.3v8h18.3zm5.23 10.67h-28.76v6.6a3.3 3.3 0 0 0 3.94-3.28c-.01-.3-.05-.65-.01-.66h2.61c-.05 0 0 .41 0 .67a3.3 3.3 0 0 0 3.26 3.33 3.3 3.3 0 0 0 3.26-3.33c0-.31-.04-.66 0-.67h2.6c-.04 0 0 .41 0 .67a3.3 3.3 0 0 0 3.26 3.33 3.3 3.3 0 0 0 3.26-3.33c0-.31-.04-.66 0-.67h2.61c-.04 0 0 .41 0 .67a3.3 3.3 0 0 0 3.26 3.33c.28 0 .5-.06.71-.16zm0 9.24c-.2.05-.44.09-.71.09a5.8 5.8 0 0 1-4.57-2.23 5.8 5.8 0 0 1-9.12 0 5.8 5.8 0 0 1-9.13 0 5.8 5.8 0 0 1-4.56 2.23c-.27 0-.46-.04-.67-.06v4.06h28.76z"/></defs><use xlink:href="#ja" transform="translate(-783 -1172)"/></symbol></svg>