<?xml version="1.0" encoding="utf-8"?><svg xmlns="http://www.w3.org/2000/svg" xmlns:xlink="http://www.w3.org/1999/xlink"><symbol viewBox="0 0 20 19" id="arrow" xmlns="http://www.w3.org/2000/svg"><path d="M19.586 8.85L1.015.28a.718.718 0 00-.855.2.71.71 0 00-.017.876L6.25 9.5.143 17.642a.712.712 0 00.572 1.143.708.708 0 00.298-.066l18.571-8.571a.713.713 0 00.002-1.298z"/></symbol><symbol viewBox="0 0 6 11" id="arrow-small" xmlns="http://www.w3.org/2000/svg"><path d="M5.587 5.226L.96.613a.388.388 0 00-.547.549L4.764 5.5.414 9.838a.387.387 0 10.547.549l4.626-4.613a.387.387 0 000-.548z"/></symbol><symbol viewBox="0 0 94.073 94.072" id="circle-of-two-clockwise-arrows-rotation" xmlns="http://www.w3.org/2000/svg"><path d="M91.465 5.491a1.996 1.996 0 00-2.18.434l-8.316 8.316C72.046 5.057 60.125 0 47.399 0c-2.692 0-5.407.235-8.068.697C21.218 3.845 6.542 17.405 1.944 35.244a2 2 0 001.936 2.499h12.738a2 2 0 001.878-1.313c3.729-10.193 12.992-17.971 23.598-19.814a31.022 31.022 0 015.288-.456c8.428 0 16.299 3.374 22.168 9.5l-8.445 8.444a2.001 2.001 0 001.414 3.414H90.7a2 2 0 002-2V7.338c0-.808-.489-1.537-1.235-1.847zm-1.273 50.837H77.455c-.839 0-1.59.523-1.878 1.312-3.729 10.193-12.992 17.972-23.598 19.814a31.03 31.03 0 01-5.288.456c-8.428 0-16.3-3.374-22.168-9.5l8.444-8.444a2 2 0 00-1.414-3.414H3.374a2 2 0 00-2 2v28.181a2 2 0 003.414 1.413l8.316-8.315c8.922 9.183 20.843 14.241 33.569 14.241 2.693 0 5.408-.235 8.069-.697 18.112-3.146 32.789-16.708 37.387-34.547.155-.6.023-1.234-.354-1.725a2.008 2.008 0 00-1.583-.775z"/></symbol><symbol viewBox="0 0 10 10" id="close" xmlns="http://www.w3.org/2000/svg"><path d="M.142.834a.498.498 0 010-.693.498.498 0 01.693 0L4.997 4.31 9.167.14a.49.49 0 01.686 0 .486.486 0 010 .694L5.691 4.997l4.162 4.17a.485.485 0 010 .693.49.49 0 01-.686 0l-4.17-4.17L.835 9.86a.498.498 0 01-.693 0 .498.498 0 010-.694l4.162-4.169L.142.834z"/></symbol><symbol viewBox="0 0 53.304 53.304" id="facebook-sketched-logo-variant" xmlns="http://www.w3.org/2000/svg"><path d="M4.486 49.771c.126.201.254.354.381.494.249.268.494.479.738.672.972.748 1.973 1.24 2.938 1.522.327-.047-.466-.461.057-.442 2.087 1.555 5.834 1.518 6.02.846-1.413-.152-2.84-.498-4.254-.969-1.137-.39-2.277-.843-3.366-1.419.083.036.165.076.249.111.852.352 1.731.617 2.622.838 1.782.438 3.612.691 5.459.846 3.698.303 7.468.191 11.212-.027 3.747-.225 7.469-.559 11.124-.82l5.444-.365c.905-.061 1.808-.121 2.729-.221.463-.053.928-.111 1.422-.221.248-.055.504-.121.787-.232.279-.126.604-.234.992-.709.104-.346.069-.67-.025-.822-.092-.156-.201-.16-.307-.101-.195.151-.529.437-.89.446-.699.068-1.674-.01-2.95-.008-2.529-.016-6.08.096-9.314.803-.418-.262.277-.57-1.084-.797-5.307-.116-11.133 1.229-16.777 1.328-1.147-.965-5.274-1.441-7.021-.971-.182.477 2.69.508 2.579.842-1.055.412-2.822.069-4.45-.367l-2.155-.619c-.015-.006-.032-.01-.046-.018-.423-.175-.925-.449-1.042-.662-.005 0-.004-.009-.004-.015.023.001.028-.026.081-.067.105-.098.3-.207.504-.297.415-.182.893-.318 1.373-.438 1.944-.458 4.011-.688 6.077-.895a130.6 130.6 0 015.537-.396c.095.225.208.441.354.633a2.931 2.931 0 001.935 1.139c.421.053.675.01.961.006l.853-.035 1.7-.06c.48.146 1.268.261 2.222.343l.744.055c.202.021.669.031 1.038-.061a3.13 3.13 0 001.962-1.406c.159-.264.265-.541.345-.84.428.006.855.008 1.283.019 3.65.114 7.305.299 10.801.891.521.091 1.044.179 1.557.294.758.172 2.16.356 2.838.711.361.159.41.486.461.377.035-.012.029-.267-.147-.461-.127-.154-.346-.299-.61-.437a5.431 5.431 0 00-.192-.101c-.031-.014-.05-.029-.083-.043-.04-.017-.082-.025-.123-.041-.086-.037-.157-.072-.258-.107-.176-.062-.355-.114-.535-.168l-.169-.053a18.634 18.634 0 00-.97-.248 6.791 6.791 0 00-.485-.09c-1.097-.222-2.207-.371-3.322-.515a87.764 87.764 0 00-6.032-.466 140.232 140.232 0 00-3.897-.115c.014-.139.009-.17.012-.384l-.005-.427c-.007-.399-.023-.779-.038-1.161V26.208c0-.711.347-1.336.874-1.734.332-.044.77-.013 1.172-.019l1.553.01c.502.017 1.133-.015 1.678-.208.266-.102.561-.216.822-.407.662-.213 1.146-.594 1.215-1.032.062-.389.123-.794.185-1.213l.319-2.583c.054-.496.104-1.002.152-1.515.073-.798-.764-1.445-1.883-1.504-.309-.254-.685-.453-1.133-.464l-3.171.006c-.356.004-.642.007-.899-.039a2.16 2.16 0 01-.822-1.691v-3.144c0-.371.242-.771.718-1.192.103-.091.21-.168.317-.24l3.262-.022c.314-.01.643.02 1.035-.053.303-.057.586-.188.845-.352a2.17 2.17 0 001.86-2.145V2.469a2.169 2.169 0 00-2-2.159A2.446 2.446 0 0036.273 0l-3.842.021c-1.268.016-2.545-.022-3.825.097-1.084.099-2.167.291-3.204.65l-.076.027c-.156.056-.314.104-.468.168-.058.026-.112.059-.169.085-.064.027-.121.05-.188.08-.1.051-.195.109-.293.162a9.152 9.152 0 00-.364.202c-.121.071-.238.148-.356.223-.063.041-.129.078-.192.12l-.003.002a10.008 10.008 0 00-.833.618c-.015.012-.03.022-.045.035-.059.049-.117.1-.175.151-.019.016-.04.029-.059.045a6.414 6.414 0 00-.327.31c-.048.046-.1.088-.147.135-.454.465-1.03 1.225-1.313 2.094a10.98 10.98 0 00-.526 2.366c-.068.631-.042 1.008.004.88.054-.124.113-.726.448-1.98l.06-.205c.074-.249.156-.496.246-.739.012-.035.026-.07.039-.104.028-.072.061-.14.091-.211a5.432 5.432 0 01.485-.905c.113-.167.233-.326.359-.479.078-.095.153-.193.236-.281.197-.215.401-.425.625-.623 1.045-.895 2.248-1.648 3.594-2.007.818-.231 1.654-.36 2.5-.44-1.356.205-2.483.559-3.371 1.068-1.482.853-2.547 1.814-3.205 2.888-.664 1.075-1.033 2.1-1.123 3.079-.082.978-.122 1.616-.122 1.913v4.366a2.177 2.177 0 01-2.177 2.177h-.065a3.44 3.44 0 00.955-.638c.292-.282.543-.642.661-1.077.114-.482.087-.787.127-1.147.104-1.404.225-2.796.366-4.174-.251-.76-.532-.534-.802.399-.135.466-.269 1.109-.395 1.894l-.183 1.279-.086.71-.042.372c-.011.134-.03.259-.047.312-.082.288-.316.579-.661.804-.339.22-.795.363-1.158.35H17a3.36 3.36 0 00-.929.134 3.909 3.909 0 00-1.131.523 3.471 3.471 0 00-.954.943 2.777 2.777 0 00-.444 1.117c-.026.16-.02.186-.032.285l-.024 2.077.003 1.014c.021.367-.039.576.073 1.23.265 1.112 1.045 1.782 1.825 2.176.413.199.806.326 1.315.38.149.017.23.015.309.014l.229-.002c.102-.003.212.009.324.026.185.155.069.212.079.309-.025.107.197.22.488.647a.575.575 0 01.104.206v-.002c.001.004 0 .006-.005-.02a.102.102 0 01.001-.039l.004.059c0-.002.004.012.001.006l-.001-.004.002.031.003.047.001-.011v-.006l.004.099-.002-.027-.003-.055v.053l-.003.205-.012 1.649c-.001 1.104.013 2.22.037 3.343.048 2.244.141 4.521.249 6.809l.352 6.881.024.445c.008.142.037.281.064.42-2.669.123-5.32.299-7.927.584-.985.113-1.963.242-2.933.423-.135.028-.27.058-.404.084-.11-.136.48-.353.315-.481-.693-.1-1.362.039-1.807.266-.45.228-.652.525-.477.629a2.436 2.436 0 00-.767.203 1.285 1.285 0 00-.459.348c-.077.091-.153.21-.206.355-.03.068-.045.151-.062.231l-.005.03-.001.004.003.08-.001.002-.001.005-.006.021-.013.045c0 .086.019.226.044.324.019.074.042.153.069.225.047.139.109.255.173.359zm28.687-33.853h1.356l1.354.001c.224.005.453-.02.691.048.02.005.036.017.055.023h-3.072c-.184 0-.358-.029-.528-.072h.144zm-16.374 7.974a2.77 2.77 0 01-1.777-1.039 1.684 1.684 0 01-.348-.948l.006-1.089.034-2.178c-.171-1.192.787-2.062 1.846-2.298-.601.387-1 1.059-1 1.827v3.687c0 .958.622 1.762 1.482 2.053-.081-.004-.164-.015-.243-.015zm3.859 22.652l.312-.013c.089.174.192.338.321.48a1.61 1.61 0 01-.633-.467zm-.395-.966l-.024-1.112-.05-2.237-.105-4.479-.189-8.941-.032-2.226c.003-.349.003-.786-.191-1.141a2.523 2.523 0 00-.743-.888 2.918 2.918 0 00-1.071-.524h.693c1.202 0 2.177.975 2.177 2.177v19.354c0 .135.014.269.038.397-.145.005-.291.009-.436.015a1.813 1.813 0 01-.067-.395zM5.533 48.73c-.033.045-.035-.021-.047-.045.07.055.028.018.055.03l-.008.015z"/></symbol><symbol viewBox="0 0 40 40" id="fb" xmlns="http://www.w3.org/2000/svg"><path fill-rule="evenodd" clip-rule="evenodd" d="M20 0C8.954 0 0 8.954 0 20s8.954 20 20 20 20-8.954 20-20S31.046 0 20 0zm2.085 20.878V31.76h-4.502V20.879h-2.25v-3.75h2.25v-2.251c0-3.059 1.27-4.878 4.878-4.878h3.004v3.75h-1.878c-1.404 0-1.497.524-1.497 1.502l-.005 1.877h3.401l-.398 3.75h-3.003z"/></symbol><symbol viewBox="0 0 40 40" id="insta" xmlns="http://www.w3.org/2000/svg"><path fill-rule="evenodd" clip-rule="evenodd" d="M20 0C8.954 0 0 8.954 0 20s8.954 20 20 20 20-8.954 20-20S31.046 0 20 0zm-4.397 9.398c1.138-.052 1.501-.065 4.398-.065h-.003c2.897 0 3.26.013 4.397.065 1.136.052 1.912.232 2.592.495a5.212 5.212 0 011.889 1.23 5.235 5.235 0 011.23 1.89c.263.678.443 1.453.496 2.589.051 1.138.065 1.501.065 4.398s-.014 3.26-.065 4.398c-.053 1.135-.233 1.91-.495 2.588a5.237 5.237 0 01-1.232 1.89 5.22 5.22 0 01-1.888 1.23c-.678.265-1.454.444-2.59.496-1.138.052-1.5.065-4.397.065-2.897 0-3.26-.013-4.398-.065-1.136-.052-1.91-.231-2.59-.495a5.224 5.224 0 01-1.888-1.231 5.228 5.228 0 01-1.23-1.89c-.264-.678-.444-1.453-.496-2.589-.052-1.137-.065-1.5-.065-4.397 0-2.897.014-3.26.065-4.398.05-1.136.23-1.91.495-2.59a5.237 5.237 0 011.231-1.889 5.223 5.223 0 011.89-1.23c.678-.263 1.453-.443 2.589-.495z"/><path fill-rule="evenodd" clip-rule="evenodd" d="M19.044 11.256h.957c2.848 0 3.186.01 4.31.06 1.04.048 1.605.222 1.981.368a3.31 3.31 0 011.226.798c.373.373.604.729.798 1.227.146.375.32.94.367 1.98.052 1.124.063 1.462.063 4.309 0 2.846-.011 3.184-.063 4.309-.047 1.04-.22 1.604-.367 1.98a3.298 3.298 0 01-.798 1.225 3.3 3.3 0 01-1.226.798c-.376.146-.94.32-1.98.367-1.125.051-1.463.063-4.31.063-2.849 0-3.186-.012-4.31-.063-1.04-.048-1.605-.221-1.982-.367a3.306 3.306 0 01-1.226-.798 3.307 3.307 0 01-.799-1.226c-.146-.376-.32-.94-.367-1.98-.05-1.125-.061-1.463-.061-4.311 0-2.849.01-3.184.061-4.309.048-1.04.222-1.604.367-1.98.194-.498.425-.854.799-1.227a3.311 3.311 0 011.226-.798c.376-.147.941-.32 1.981-.368.984-.045 1.365-.058 3.353-.06v.003zm6.651 1.771a1.28 1.28 0 100 2.561 1.28 1.28 0 000-2.561zm-11.171 6.974a5.478 5.478 0 1110.956 0 5.478 5.478 0 01-10.957 0z"/><path fill-rule="evenodd" clip-rule="evenodd" d="M20 16.444a3.556 3.556 0 110 7.112 3.556 3.556 0 010-7.112z"/></symbol><symbol viewBox="0 0 54 56" id="logo" xmlns="http://www.w3.org/2000/svg"><ellipse cx="24.038" cy="24" rx="24.038" ry="24"/><g filter="url(#hfilter0_d)"><ellipse cx="37.019" cy="35.04" rx="12.981" ry="12.96"/></g><defs><filter id="hfilter0_d" x="20.038" y="22.08" width="33.962" height="33.92" filterUnits="userSpaceOnUse" color-interpolation-filters="sRGB"><feFlood flood-opacity="0" result="BackgroundImageFix"/><feColorMatrix in="SourceAlpha" values="0 0 0 0 0 0 0 0 0 0 0 0 0 0 0 0 0 0 127 0"/><feOffset dy="4"/><feGaussianBlur stdDeviation="2"/><feColorMatrix values="0 0 0 0 0.224444 0 0 0 0 0.272708 0 0 0 0 0.533333 0 0 0 0.18 0"/><feBlend in2="BackgroundImageFix" result="effect1_dropShadow"/><feBlend in="SourceGraphic" in2="effect1_dropShadow" result="shape"/></filter></defs></symbol><symbol viewBox="0 0 12 15" id="marker" xmlns="http://www.w3.org/2000/svg"><path d="M6 .5A5.228 5.228 0 00.78 5.723c0 4.29 4.7 8.48 4.9 8.656a.482.482 0 00.64 0c.2-.176 4.9-4.365 4.9-8.656A5.228 5.228 0 006 .5zm0 3.757c.8 0 1.45.657 1.45 1.466A1.46 1.46 0 016 7.189c-.8 0-1.45-.658-1.45-1.466 0-.809.65-1.466 1.45-1.466z"/></symbol><symbol viewBox="0 0 14 15" id="phone" xmlns="http://www.w3.org/2000/svg"><path d="M13.619 10.775L11.665 8.82c-.698-.698-1.884-.419-2.163.488-.21.628-.907.977-1.535.838-1.396-.35-3.28-2.163-3.628-3.629-.21-.628.209-1.326.837-1.535.907-.279 1.186-1.465.488-2.163L3.711.866c-.559-.488-1.396-.488-1.884 0L.5 2.192c-1.325 1.396.14 5.094 3.42 8.373 3.28 3.28 6.978 4.815 8.373 3.42l1.326-1.326c.488-.559.488-1.396 0-1.884z"/></symbol><symbol viewBox="0 0 20 20" id="search" xmlns="http://www.w3.org/2000/svg"><path d="M19.878 18.7l-5.81-5.81a7.876 7.876 0 001.765-4.973C15.833 3.55 12.282 0 7.917 0 3.55 0 0 3.551 0 7.917c0 4.365 3.551 7.916 7.917 7.916a7.876 7.876 0 004.973-1.765l5.81 5.81a.417.417 0 00.589 0l.589-.59a.417.417 0 000-.588zM7.917 14.167a6.257 6.257 0 01-6.25-6.25 6.257 6.257 0 016.25-6.25 6.257 6.257 0 016.25 6.25 6.257 6.257 0 01-6.25 6.25z"/></symbol><symbol viewBox="0 0 40 40" id="tw" xmlns="http://www.w3.org/2000/svg"><path fill-rule="evenodd" clip-rule="evenodd" d="M20 0C8.954 0 0 8.954 0 20s8.954 20 20 20 20-8.954 20-20S31.046 0 20 0zm-.557 16.948l-.042-.692c-.126-1.793.98-3.432 2.728-4.067.643-.226 1.735-.255 2.448-.057.28.085.811.367 1.19.622l.685.466.755-.24c.42-.128.98-.34 1.231-.48.238-.128.448-.198.448-.156 0 .24-.518 1.06-.951 1.511-.588.636-.42.692.77.269.713-.24.727-.24.587.028-.084.141-.518.635-.98 1.087-.783.777-.825.862-.825 1.512 0 1.002-.476 3.093-.951 4.237-.882 2.146-2.77 4.364-4.659 5.48-2.658 1.567-6.197 1.963-9.177 1.045-.993-.311-2.7-1.102-2.7-1.243 0-.043.518-.1 1.147-.113a7.876 7.876 0 003.75-1.045l.755-.452-.868-.297c-1.23-.424-2.336-1.398-2.616-2.316-.084-.297-.056-.31.728-.31l.811-.015-.685-.325c-.812-.41-1.553-1.101-1.917-1.808-.266-.508-.601-1.793-.503-1.892.027-.043.321.042.657.155.965.353 1.091.268.532-.325-1.05-1.073-1.371-2.669-.868-4.18l.238-.678.923.918c1.889 1.85 4.113 2.952 6.66 3.277l.699.084z"/></symbol><symbol viewBox="0 0 40 40" id="vk" xmlns="http://www.w3.org/2000/svg"><path fill-rule="evenodd" clip-rule="evenodd" d="M20 0C8.954 0 0 8.954 0 20s8.954 20 20 20 20-8.954 20-20S31.046 0 20 0zm1.628 26.314c-.197.207-.582.25-.582.25h-1.275s-2.813.165-5.291-2.366c-2.702-2.763-5.089-8.243-5.089-8.243s-.137-.36.012-.533c.168-.196.626-.208.626-.208l3.048-.02s.287.047.492.195c.17.123.265.352.265.352s.493 1.223 1.145 2.329c1.274 2.16 1.866 2.632 2.298 2.4.63-.337.442-3.053.442-3.053s.011-.985-.317-1.425c-.255-.34-.735-.439-.947-.467-.172-.022.11-.413.475-.588.549-.264 1.517-.279 2.662-.268.892.01 1.149.064 1.497.147.809.191.784.805.73 2.13-.017.397-.036.857-.036 1.388 0 .12-.004.247-.007.377-.02.68-.04 1.457.415 1.746.234.148.804.022 2.233-2.359.677-1.128 1.184-2.455 1.184-2.455s.112-.236.284-.338c.176-.103.414-.071.414-.071l3.207-.02s.965-.114 1.12.314c.164.448-.36 1.495-1.67 3.21-1.244 1.626-1.849 2.225-1.793 2.755.04.387.434.737 1.188 1.424 1.576 1.436 1.998 2.191 2.1 2.373a.893.893 0 00.019.033c.706 1.15-.784 1.24-.784 1.24l-2.85.04s-.611.118-1.416-.425c-.422-.284-.835-.748-1.227-1.19-.6-.675-1.154-1.298-1.627-1.151-.794.248-.77 1.927-.77 1.927s.006.359-.175.55z"/></symbol></svg>