<?xml version="1.0" encoding="utf-8"?><svg xmlns="http://www.w3.org/2000/svg" xmlns:xlink="http://www.w3.org/1999/xlink"><symbol viewBox="0 0 292.362 292.362" id="arrow-down" xmlns="http://www.w3.org/2000/svg"><path d="M286.935 69.377c-3.614-3.617-7.898-5.424-12.848-5.424H18.274c-4.952 0-9.233 1.807-12.85 5.424C1.807 72.998 0 77.279 0 82.228c0 4.948 1.807 9.229 5.424 12.847l127.907 127.907c3.621 3.617 7.902 5.428 12.85 5.428s9.233-1.811 12.847-5.428L286.935 95.074c3.613-3.617 5.427-7.898 5.427-12.847 0-4.948-1.814-9.229-5.427-12.85z"/></symbol><symbol viewBox="0 0 292.359 292.359" id="arrow-left" xmlns="http://www.w3.org/2000/svg"><path d="M222.979 5.424C219.364 1.807 215.08 0 210.132 0c-4.949 0-9.233 1.807-12.848 5.424L69.378 133.331c-3.615 3.617-5.424 7.898-5.424 12.847s1.809 9.233 5.424 12.847l127.906 127.907c3.614 3.617 7.898 5.428 12.848 5.428 4.948 0 9.232-1.811 12.847-5.428 3.617-3.614 5.427-7.898 5.427-12.847V18.271c-.001-4.949-1.81-9.229-5.427-12.847z"/></symbol><symbol viewBox="0 0 292.359 292.359" id="arrow-right" xmlns="http://www.w3.org/2000/svg"><path d="M222.979 133.331L95.073 5.424C91.456 1.807 87.178 0 82.226 0s-9.233 1.807-12.85 5.424c-3.617 3.617-5.424 7.898-5.424 12.847v255.813c0 4.948 1.807 9.232 5.424 12.847 3.621 3.617 7.902 5.428 12.85 5.428 4.949 0 9.23-1.811 12.847-5.428l127.906-127.907c3.614-3.613 5.428-7.897 5.428-12.847 0-4.948-1.813-9.229-5.428-12.846z"/></symbol><symbol viewBox="0 0 486.569 486.569" id="busket" xmlns="http://www.w3.org/2000/svg"><path d="M146.069 320.369h268.1c30.4 0 55.2-24.8 55.2-55.2v-114c0-.2 0-.4-.1-.6 0-.2-.1-.5-.1-.7s-.1-.4-.1-.6c-.1-.2-.1-.4-.2-.7-.1-.2-.1-.4-.2-.6-.1-.2-.1-.4-.2-.6-.1-.2-.2-.4-.3-.7-.1-.2-.2-.4-.3-.5l-.3-.6c-.1-.2-.2-.3-.3-.5-.1-.2-.3-.4-.4-.6-.1-.2-.2-.3-.4-.5-.1-.2-.3-.3-.4-.5s-.3-.3-.4-.5-.3-.3-.4-.4l-.5-.5c-.2-.1-.3-.3-.5-.4-.2-.1-.4-.3-.6-.4-.2-.1-.3-.2-.5-.3s-.4-.2-.6-.4l-.6-.3-.6-.3-.6-.3c-.2-.1-.4-.1-.6-.2-.2-.1-.5-.2-.7-.2s-.4-.1-.5-.1c-.3-.1-.5-.1-.8-.1-.1 0-.2-.1-.4-.1l-339.8-46.9v-47.4c0-.5 0-1-.1-1.4 0-.1 0-.2-.1-.4 0-.3-.1-.6-.1-.9-.1-.3-.1-.5-.2-.8 0-.2-.1-.3-.1-.5l-.3-.9c0-.1-.1-.3-.1-.4-.1-.3-.2-.5-.4-.8-.1-.1-.1-.3-.2-.4-.1-.2-.2-.4-.4-.6-.1-.2-.2-.3-.3-.5s-.2-.3-.3-.5-.3-.4-.4-.6l-.3-.3-.6-.6-.3-.3c-.2-.2-.4-.4-.7-.6-.1-.1-.3-.2-.4-.3-.2-.2-.4-.3-.6-.5-.3-.2-.6-.4-.8-.5-.1-.1-.2-.1-.3-.2-.4-.2-.9-.4-1.3-.6l-73.7-31c-6.9-2.9-14.8.3-17.7 7.2s.3 14.8 7.2 17.7l65.4 27.6v295.8c0 28 21 51.2 48.1 54.7-4.9 8.2-7.8 17.8-7.8 28 0 30.1 24.5 54.5 54.5 54.5s54.5-24.5 54.5-54.5c0-10-2.7-19.5-7.5-27.5h121.4c-4.8 8.1-7.5 17.5-7.5 27.5 0 30.1 24.5 54.5 54.5 54.5s54.5-24.5 54.5-54.5-24.5-54.5-54.5-54.5h-255c-15.6 0-28.2-12.7-28.2-28.2v-36.6c8.2 4.8 17.9 7.6 28.2 7.6zm67.2 111.6c0 15.2-12.4 27.5-27.5 27.5s-27.5-12.4-27.5-27.5 12.4-27.5 27.5-27.5 27.5 12.3 27.5 27.5zm215.4 0c0 15.2-12.4 27.5-27.5 27.5s-27.5-12.4-27.5-27.5 12.4-27.5 27.5-27.5 27.5 12.3 27.5 27.5zm-14.5-138.6h-268.1c-15.6 0-28.2-12.7-28.2-28.2v-145.9l324.5 44.7v101.1c0 15.7-12.7 28.3-28.2 28.3z"/></symbol><symbol viewBox="0 0 480 480" id="certificate" xmlns="http://www.w3.org/2000/svg"><path d="M448 24H80c-17.673 0-32 14.327-32 32v256H8a8 8 0 0 0-8 8c0 17.673 14.327 32 32 32h232v96a8 8 0 0 0 13.656 5.656L320 411.312l42.344 42.344A8 8 0 0 0 368 456a8 8 0 0 0 8-8v-96h24c17.673 0 32-14.327 32-32V64h40a8 8 0 0 0 8-8c0-17.673-14.327-32-32-32zm-32 32v256h-32v16h29.848A16 16 0 0 1 400 336h-24v-8h-16v100.688l-34.344-34.344a8 8 0 0 0-11.312 0L280 428.688V328h-16v8H32a16 16 0 0 1-13.848-8H256v-16H64V56c0-8.837 7.163-16 16-16h340.448A31.675 31.675 0 0 0 416 56zm18.152-8c4.426-7.648 14.214-10.26 21.863-5.833A16.003 16.003 0 0 1 461.848 48h-27.696z"/><path d="M395.416 274.36L385.168 256l10.288-18.344a8 8 0 0 0-3.64-11.2l-19.096-8.744-2.464-20.88a8 8 0 0 0-9.496-6.904l-20.624 4.088-14.264-15.448a8.24 8.24 0 0 0-11.653-.091l-.091.091-14.264 15.448-20.624-4.088a8 8 0 0 0-9.496 6.904l-2.464 20.88-19.096 8.76a8 8 0 0 0-3.64 11.2L254.832 256l-10.288 18.344a8 8 0 0 0 3.64 11.2l19.096 8.76 2.464 20.896a8 8 0 0 0 9.496 6.904l20.624-4.088 14.264 15.448a8 8 0 0 0 11.744 0l14.264-15.448 20.624 4.088a7.887 7.887 0 0 0 6.256-1.376 8 8 0 0 0 3.2-5.528l2.464-20.88 19.096-8.76a8 8 0 0 0 3.64-11.2zm-26.392-14.456l8.232 14.688-15.296 7.016a8 8 0 0 0-4.608 6.336l-1.968 16.744-16.536-3.272a7.886 7.886 0 0 0-7.424 2.4L320 316.2l-11.424-12.368a7.998 7.998 0 0 0-5.872-2.568 7.225 7.225 0 0 0-1.552.16l-16.536 3.272-1.968-16.744a8 8 0 0 0-4.608-6.336l-15.296-7.016 8.232-14.688c1.376-2.44 1.409-5.403 0-7.824v.032l-8.232-14.688 15.296-7.016a8 8 0 0 0 4.608-6.336l1.968-16.744 16.536 3.272a7.92 7.92 0 0 0 7.424-2.4L320 195.8l11.424 12.368a7.88 7.88 0 0 0 7.424 2.4l16.536-3.272 1.968 16.744a8 8 0 0 0 4.608 6.336l15.296 7.016-8.232 14.688a8.002 8.002 0 0 0 0 7.824z"/><path d="M320 216c-22.091 0-40 17.909-40 40 .026 22.08 17.92 39.973 40 40 22.091 0 40-17.909 40-40s-17.909-40-40-40zm0 64c-13.255 0-24-10.745-24-24s10.745-24 24-24 24 10.745 24 24-10.745 24-24 24zM176 72h128v16H176zm-80 48h288v16H96zm0 32h288v16H96zm8 104h104v16H104z"/></symbol><symbol viewBox="0 0 47.971 47.971" id="close" xmlns="http://www.w3.org/2000/svg"><path d="M28.228 23.986L47.092 5.122a2.998 2.998 0 0 0 0-4.242 2.998 2.998 0 0 0-4.242 0L23.986 19.744 5.121.88a2.998 2.998 0 0 0-4.242 0 2.998 2.998 0 0 0 0 4.242l18.865 18.864L.879 42.85a2.998 2.998 0 1 0 4.242 4.241l18.865-18.864L42.85 47.091c.586.586 1.354.879 2.121.879s1.535-.293 2.121-.879a2.998 2.998 0 0 0 0-4.242L28.228 23.986z"/></symbol><symbol viewBox="0 0 496 496" id="customer-service" xmlns="http://www.w3.org/2000/svg"><path d="M402.524 432l-18.52-55.568a56.001 56.001 0 0 0-43.112-37.384l-53.464-9.728v-4.144c9.304-5.4 17.4-12.624 23.848-21.176h16.152c13.232 0 24-10.768 24-24v-96c0-57.344-46.656-104-104-104s-104 46.656-104 104v56c0 15.424 10.968 28.328 25.512 31.336 4.488 22.992 18.856 42.448 38.488 53.84v4.144l-53.472 9.728a55.99 55.99 0 0 0-43.104 37.384l-3.2 9.608-27.248-27.248c-3.12-3.12-3.12-8.2 0-11.32l31.6-31.592-59.312-59.312L16.98 292.28C6.404 302.856.58 316.92.58 331.88s5.824 29.016 16.4 39.592l108.12 108.12C135.676 490.168 149.74 496 164.7 496s29.016-5.832 39.344-16.168l38.968-35.704L230.86 432h171.664zm-67.096-152c0 4.416-3.592 8-8 8H320.7a79.46 79.46 0 0 0 5.216-16.664c3.424-.712 6.576-2.072 9.512-3.784V280zm-8-26.224v-27.552c4.76 2.776 8 7.88 8 13.776s-3.24 11-8 13.776zm-160 0c-4.76-2.776-8-7.88-8-13.776s3.24-11 8-13.776v27.552zm0-53.776v9.136a31.73 31.73 0 0 0-8 3.312V184c0-48.52 39.48-88 88-88s88 39.48 88 88v28.448a31.44 31.44 0 0 0-8-3.312V200h-8c-23.656 0-45.896-9.216-62.632-25.944l-9.368-9.368-9.368 9.368C221.324 190.784 199.084 200 175.428 200h-8zm16 56v-40.304c24.024-1.808 46.424-11.72 64-28.432 17.576 16.712 39.976 26.632 64 28.432V256c0 11.664-3.184 22.576-8.656 32h-55.344v16h42.192c-11.28 9.928-26.024 16-42.192 16-35.288 0-64-28.712-64-64zm88 76.312v.376l-24 24-24-24v-.376c7.584 2.384 15.64 3.688 24 3.688s16.416-1.304 24-3.688zM126.02 381.488a40.014 40.014 0 0 1 30.792-26.712l55.92-10.16 34.696 34.696 34.688-34.688 55.912 10.16a40 40 0 0 1 30.792 26.712L380.332 416H214.86l-31.16-31.16-34.624 31.32c-3.016 3.032-8.288 3.032-11.312 0l-17.472-17.472 5.728-17.2zM52.684 279.192l36.688 36.688-8.688 8.688-36.688-36.688 8.688-8.688zm140.28 189.104c-7.552 7.536-17.6 11.704-28.28 11.704s-20.728-4.168-28.288-11.72L28.276 360.168c-7.552-7.552-11.712-17.6-11.712-28.28 0-10.688 4.16-20.736 11.712-28.288l4.4-4.4 36.688 36.688-.288.288c-9.352 9.36-9.352 24.584 0 33.944l57.368 57.368c4.536 4.528 10.56 7.032 16.976 7.032s12.44-2.496 16.68-6.752l.6-.536 36.856 36.856-4.592 4.208zm16.4-15.04l-36.776-36.776 10.568-9.552 36.712 36.712-10.504 9.616zM471.428 0h-112c-13.232 0-24 10.768-24 24v64c0 13.232 10.768 24 24 24h21.368l-8.272 48.248 77.2-48.248h21.704c13.232 0 24-10.768 24-24V24c0-13.232-10.768-24-24-24zm8 88c0 4.408-3.592 8-8 8h-26.296l-50.808 31.752L399.772 96h-40.344c-4.408 0-8-3.592-8-8V24c0-4.408 3.592-8 8-8h112c4.408 0 8 3.592 8 8v64z"/><path d="M367.428 32h96v16h-96zm0 32h64v16h-64zm80 0h16v16h-16zm-200-40C142.9 24 52.86 96.304 29.452 197.16l-15.16-25.272-13.72 8.232 28.12 46.856 46.856-28.12-8.232-13.72-21.68 13.008C68.308 105.88 151.276 40 247.428 40c21.016 0 41.752 3.12 61.632 9.28L313.796 34c-21.416-6.64-43.744-10-66.368-10zM491.54 177.136l-46.856-28.12-28.112 46.864 13.72 8.232 14-23.336c7.368 21.56 11.136 44.112 11.136 67.224 0 47.576-16.48 94.088-46.392 130.96l12.424 10.08c32.224-39.712 49.968-89.808 49.968-141.04 0-24.472-3.944-48.368-11.632-71.248l23.512 14.104 8.232-13.72z"/></symbol><symbol viewBox="0 0 60 60" id="dots" xmlns="http://www.w3.org/2000/svg"><path d="M8 22c-4.411 0-8 3.589-8 8s3.589 8 8 8 8-3.589 8-8-3.589-8-8-8zm44 0c-4.411 0-8 3.589-8 8s3.589 8 8 8 8-3.589 8-8-3.589-8-8-8zm-22 0c-4.411 0-8 3.589-8 8s3.589 8 8 8 8-3.589 8-8-3.589-8-8-8z"/></symbol><symbol viewBox="0 0 129 129" id="down-arrow" xmlns="http://www.w3.org/2000/svg"><path d="M121.3 34.6c-1.6-1.6-4.2-1.6-5.8 0l-51 51.1-51.1-51.1c-1.6-1.6-4.2-1.6-5.8 0-1.6 1.6-1.6 4.2 0 5.8l53.9 53.9c.8.8 1.8 1.2 2.9 1.2 1 0 2.1-.4 2.9-1.2l53.9-53.9c1.7-1.6 1.7-4.2.1-5.8z"/></symbol><symbol viewBox="0 0 512 512" id="fast-delivery" xmlns="http://www.w3.org/2000/svg"><path d="M476.158 231.363l-13.259-53.035c3.625-.77 6.345-3.986 6.345-7.839v-8.551c0-18.566-15.105-33.67-33.67-33.67h-60.392V110.63c0-9.136-7.432-16.568-16.568-16.568H50.772c-9.136 0-16.568 7.432-16.568 16.568V256a8.017 8.017 0 0 0 16.034 0V110.63c0-.295.239-.534.534-.534h307.841c.295 0 .534.239.534.534v145.372a8.017 8.017 0 0 0 16.034 0v-9.088h94.569l.021.002.022-.001c11.637.008 21.518 7.646 24.912 18.171h-24.928a8.017 8.017 0 0 0-8.017 8.017v17.102c0 13.851 11.268 25.119 25.119 25.119h9.086v35.273h-20.962c-6.886-19.883-25.787-34.205-47.982-34.205s-41.097 14.322-47.982 34.205h-3.86v-60.393a8.017 8.017 0 0 0-16.034 0v60.391H192.817c-6.886-19.883-25.787-34.205-47.982-34.205s-41.097 14.322-47.982 34.205H50.772a.534.534 0 0 1-.534-.534v-17.637h34.739a8.017 8.017 0 0 0 0-16.034H8.017a8.017 8.017 0 0 0 0 16.034h26.188v17.637c0 9.136 7.432 16.568 16.568 16.568h43.304c-.002.178-.014.355-.014.534 0 27.996 22.777 50.772 50.772 50.772s50.772-22.776 50.772-50.772c0-.18-.012-.356-.014-.534h180.67c-.002.178-.014.355-.014.534 0 27.996 22.777 50.772 50.772 50.772 27.995 0 50.772-22.776 50.772-50.772 0-.18-.012-.356-.014-.534h26.203a8.017 8.017 0 0 0 8.017-8.017v-85.511c.001-21.112-15.576-38.653-35.841-41.738zm-100.976-87.062h60.392c9.725 0 17.637 7.912 17.637 17.637v.534h-78.029v-18.171zm0 86.58v-52.376h71.235l13.094 52.376h-84.329zM144.835 401.904c-19.155 0-34.739-15.583-34.739-34.739s15.584-34.739 34.739-34.739c19.155 0 34.739 15.583 34.739 34.739s-15.584 34.739-34.739 34.739zm282.188 0c-19.155 0-34.739-15.583-34.739-34.739s15.584-34.739 34.739-34.739c19.155 0 34.739 15.583 34.739 34.739s-15.584 34.739-34.739 34.739zm68.944-102.614h-9.086c-5.01 0-9.086-4.076-9.086-9.086v-9.086h18.171v18.172z"/><path d="M144.835 350.597c-9.136 0-16.568 7.432-16.568 16.568 0 9.136 7.432 16.568 16.568 16.568 9.136 0 16.568-7.432 16.568-16.568 0-9.136-7.432-16.568-16.568-16.568zm282.188 0c-9.136 0-16.568 7.432-16.568 16.568 0 9.136 7.432 16.568 16.568 16.568 9.136 0 16.568-7.432 16.568-16.568 0-9.136-7.432-16.568-16.568-16.568zm-94.063-34.204H213.244a8.017 8.017 0 0 0 0 16.034H332.96a8.017 8.017 0 0 0 0-16.034zm-205.227-34.205H25.119a8.017 8.017 0 0 0 0 16.034h102.614a8.017 8.017 0 0 0 0-16.034zM278.771 173.37a8.017 8.017 0 0 0-11.337.001l-71.292 71.291-37.087-37.087a8.016 8.016 0 0 0-11.337 0 8.016 8.016 0 0 0 0 11.337l42.756 42.756c1.565 1.566 3.617 2.348 5.668 2.348s4.104-.782 5.668-2.348l76.96-76.96a8.018 8.018 0 0 0 .001-11.338z"/></symbol><symbol viewBox="0 0 492 492" id="left-arrow" xmlns="http://www.w3.org/2000/svg"><path d="M198.608 246.104L382.664 62.04c5.068-5.056 7.856-11.816 7.856-19.024 0-7.212-2.788-13.968-7.856-19.032l-16.128-16.12C361.476 2.792 354.712 0 347.504 0s-13.964 2.792-19.028 7.864L109.328 227.008c-5.084 5.08-7.868 11.868-7.848 19.084-.02 7.248 2.76 14.028 7.848 19.112l218.944 218.932c5.064 5.072 11.82 7.864 19.032 7.864 7.208 0 13.964-2.792 19.032-7.864l16.124-16.12c10.492-10.492 10.492-27.572 0-38.06L198.608 246.104z"/></symbol><symbol viewBox="0 0 491.582 491.582" id="location" xmlns="http://www.w3.org/2000/svg"><path d="M245.791 0C153.799 0 78.957 74.841 78.957 166.833c0 36.967 21.764 93.187 68.493 176.926 31.887 57.138 63.627 105.4 64.966 107.433l22.941 34.773a12.497 12.497 0 0 0 20.868 0l22.94-34.771c1.326-2.01 32.835-49.855 64.967-107.435 46.729-83.735 68.493-139.955 68.493-176.926C412.625 74.841 337.783 0 245.791 0zm76.511 331.576c-31.685 56.775-62.696 103.869-64.003 105.848l-12.508 18.959-12.504-18.954c-1.314-1.995-32.563-49.511-64.007-105.853-43.345-77.676-65.323-133.104-65.323-164.743C103.957 88.626 167.583 25 245.791 25s141.834 63.626 141.834 141.833c0 31.643-21.978 87.069-65.323 164.743z"/><path d="M245.791 73.291c-51.005 0-92.5 41.496-92.5 92.5s41.495 92.5 92.5 92.5 92.5-41.496 92.5-92.5-41.495-92.5-92.5-92.5zm0 160c-37.22 0-67.5-30.28-67.5-67.5s30.28-67.5 67.5-67.5c37.221 0 67.5 30.28 67.5 67.5s-30.279 67.5-67.5 67.5z"/></symbol><symbol viewBox="0 0 470 470" id="map" xmlns="http://www.w3.org/2000/svg"><path d="M470 310.715V159.176a7.5 7.5 0 0 0-5.366-7.19l-70.113-20.802c5.427-13.275 8.81-26.451 8.81-38.684 0-51.004-41.495-92.5-92.5-92.5s-92.5 41.495-92.5 92.5c0 12.233 3.383 25.409 8.81 38.684l-67.979 20.169L9.633 106.985A7.5 7.5 0 0 0 0 114.176V417.5a7.5 7.5 0 0 0 5.367 7.19l151.549 44.967.113.033c.024.007.049.009.073.016.279.08.565.141.857.188a7.547 7.547 0 0 0 1.191.105c.348 0 .667-.028.982-.069.078-.01.155-.023.233-.036.292-.047.579-.109.859-.188.024-.007.049-.009.073-.016l.069-.021 146.427-43.445a7.464 7.464 0 0 0 6.078 0l146.496 43.465a7.496 7.496 0 0 0 6.62-1.18 7.503 7.503 0 0 0 3.014-6.01V310.775l-.001-.06zm-15-145.941V300.79l-136.669-40.55v-21.332c9.78-10.071 48.188-50.995 69.876-93.951L455 164.774zM310.831 15c42.733 0 77.5 34.766 77.5 77.5 0 12.181-4.075 25.748-10.412 39.485a7.491 7.491 0 0 0-.765 1.633c-18.072 38.149-53.029 77.25-66.325 91.396-13.288-14.131-48.213-53.178-66.292-91.314a7.5 7.5 0 0 0-.833-1.78c-6.314-13.712-10.373-27.254-10.373-39.421 0-42.733 34.767-77.499 77.5-77.499zm-7.5 223.907v21.332l-136.669 40.55V164.774l66.793-19.817c21.689 42.956 60.096 83.88 69.876 93.95zM15 275.886l51.818 15.375c.712.211 1.43.312 2.136.312a7.502 7.502 0 0 0 2.13-14.692L15 260.24V124.224l136.662 40.55V300.79l-51.817-15.375a7.498 7.498 0 0 0-9.323 5.057 7.498 7.498 0 0 0 5.057 9.323l56.084 16.641v136.016L15 411.902V275.886zm303.331 136.016v-54.297c0-4.142-3.357-7.5-7.5-7.5s-7.5 3.358-7.5 7.5v54.297l-136.669 40.549V316.436l136.669-40.55v51.719c0 4.142 3.357 7.5 7.5 7.5s7.5-3.358 7.5-7.5v-51.719L455 316.436v136.016l-136.669-40.55z"/><path d="M310.831 145c28.948 0 52.5-23.551 52.5-52.5 0-28.948-23.552-52.5-52.5-52.5s-52.5 23.551-52.5 52.5c0 28.948 23.552 52.5 52.5 52.5zm0-90c20.678 0 37.5 16.822 37.5 37.5s-16.822 37.5-37.5 37.5-37.5-16.822-37.5-37.5 16.822-37.5 37.5-37.5z"/></symbol><symbol viewBox="0 0 511.999 511.999" id="medal" xmlns="http://www.w3.org/2000/svg"><path d="M321.356 63.796c-56.318-28.458-124.159-17.577-168.81 27.075-51.895 51.894-57.089 134.64-12.081 192.474a8.055 8.055 0 0 0 6.373 3.114 8.03 8.03 0 0 0 4.95-1.702 8.07 8.07 0 0 0 1.413-11.323c-40.019-51.422-35.394-125.002 10.757-171.153 39.71-39.712 100.038-49.39 150.122-24.083 3.976 2.012 8.83.414 10.84-3.563a8.067 8.067 0 0 0-3.564-10.839zm64.431 64.443a8.07 8.07 0 1 0-14.406 7.275c25.289 50.076 15.606 110.396-24.095 150.096-46.152 46.15-119.731 50.774-171.153 10.757a8.068 8.068 0 0 0-9.91 12.735c26.344 20.502 57.855 30.586 89.266 30.586 37.547 0 74.952-14.411 103.209-42.668 44.641-44.64 55.527-112.468 27.089-168.781zM364.94 97.508a147.944 147.944 0 0 0-12.88-12.88 8.066 8.066 0 0 0-11.388.703 8.065 8.065 0 0 0 .7 11.388 132.458 132.458 0 0 1 11.476 11.475 8.048 8.048 0 0 0 6.049 2.725 8.04 8.04 0 0 0 5.34-2.023 8.066 8.066 0 0 0 .703-11.388z"/><path d="M446.066 208.41c5.38-8.827 5.38-19.791-.002-28.616l-10.615-17.407a11.358 11.358 0 0 1-1.521-7.67l3.164-20.103c1.613-10.245-2.596-20.398-10.982-26.499l-16.451-11.966a11.36 11.36 0 0 1-4.354-6.506l-4.791-19.799c-2.432-10.057-10.191-17.815-20.247-20.249l-19.8-4.792a11.355 11.355 0 0 1-6.506-4.354l-11.968-16.455c-6.1-8.386-16.254-12.597-26.496-10.983l-20.11 3.164a11.359 11.359 0 0 1-7.669-1.521l-17.41-10.618c-8.826-5.382-19.79-5.381-28.616 0l-17.408 10.615a11.358 11.358 0 0 1-7.67 1.521l-20.104-3.164c-10.242-1.612-20.397 2.597-26.497 10.983l-11.966 16.451a11.362 11.362 0 0 1-6.508 4.354l-19.799 4.791c-10.055 2.432-17.815 10.191-20.249 20.247l-4.792 19.8a11.35 11.35 0 0 1-4.354 6.506L85.89 108.108c-8.386 6.099-12.594 16.251-10.983 26.496l3.164 20.111a11.358 11.358 0 0 1-1.521 7.669l-10.617 17.411c-5.38 8.826-5.38 19.79.001 28.615l10.615 17.408a11.358 11.358 0 0 1 1.521 7.67l-3.164 20.104c-1.613 10.244 2.596 20.398 10.982 26.498l16.451 11.966a11.355 11.355 0 0 1 4.354 6.506l4.791 19.799c2.432 10.057 10.191 17.815 20.247 20.249l8.268 2.001-55.954 124.814a8.067 8.067 0 0 0 8.32 11.312l45.022-5.383 25.936 37.191a8.07 8.07 0 0 0 13.981-1.314l57.145-127.479 7.241 4.415a27.444 27.444 0 0 0 14.308 4.036c4.948 0 9.895-1.346 14.308-4.036l7.502-4.574 57.217 127.638a8.067 8.067 0 0 0 7.365 4.768 8.069 8.069 0 0 0 6.616-3.453l25.936-37.191 45.022 5.383a8.067 8.067 0 1 0 8.32-11.312l-55.983-124.883 7.957-1.925c10.055-2.432 17.815-10.191 20.249-20.247l4.792-19.8a11.355 11.355 0 0 1 4.354-6.506l16.455-11.968c8.386-6.099 12.594-16.251 10.983-26.496l-3.164-20.111a11.358 11.358 0 0 1 1.521-7.669l10.618-17.411zM168.408 487.627l-20.554-29.474a8.064 8.064 0 0 0-7.576-3.396l-35.679 4.266L155.578 345.3a11.284 11.284 0 0 1 2.457 2.455l11.968 16.455a27.734 27.734 0 0 0 3.808 4.242l-26.833 59.857a8.07 8.07 0 0 0 14.724 6.601l26.738-59.644c2.631.361 5.34.355 8.059-.073l20.11-3.164a11.327 11.327 0 0 1 3.606.024l-51.807 115.574zm239.324-28.606l-35.68-4.264a8.064 8.064 0 0 0-7.576 3.396l-20.554 29.474-51.829-115.619a11.359 11.359 0 0 1 3.293.024l20.103 3.164c2.829.445 5.648.431 8.379.024l26.758 59.692a8.07 8.07 0 0 0 7.367 4.77 8.068 8.068 0 0 0 7.357-11.371l-26.935-60.085a27.771 27.771 0 0 0 3.571-4.013l11.966-16.451a11.327 11.327 0 0 1 2.716-2.645l51.064 113.904zm24.555-259.013l-10.617 17.411a27.52 27.52 0 0 0-3.684 18.578l3.164 20.11a11.3 11.3 0 0 1-4.534 10.938l-16.456 11.969a27.514 27.514 0 0 0-10.545 15.76l-4.792 19.8a11.303 11.303 0 0 1-8.359 8.359l-19.8 4.791a27.512 27.512 0 0 0-15.762 10.546l-11.966 16.451a11.293 11.293 0 0 1-10.939 4.533l-20.104-3.164a27.517 27.517 0 0 0-18.581 3.684l-17.407 10.615a11.307 11.307 0 0 1-11.812 0l-17.411-10.616a27.51 27.51 0 0 0-18.579-3.684l-20.111 3.164a11.297 11.297 0 0 1-10.938-4.534l-11.969-16.455a27.514 27.514 0 0 0-15.76-10.545l-19.8-4.792a11.303 11.303 0 0 1-8.359-8.359l-4.791-19.799a27.51 27.51 0 0 0-10.546-15.763l-16.45-11.967a11.297 11.297 0 0 1-4.533-10.939l3.164-20.104a27.515 27.515 0 0 0-3.684-18.58l-10.615-17.409a11.303 11.303 0 0 1 0-11.812l10.617-17.411a27.515 27.515 0 0 0 3.684-18.578l-3.164-20.11a11.3 11.3 0 0 1 4.534-10.938l16.456-11.969a27.514 27.514 0 0 0 10.545-15.76l4.792-19.8a11.303 11.303 0 0 1 8.359-8.359l19.8-4.791a27.507 27.507 0 0 0 15.761-10.546l11.966-16.451A11.294 11.294 0 0 1 194 28.948l20.104 3.164a27.504 27.504 0 0 0 18.581-3.684l17.407-10.615a11.307 11.307 0 0 1 11.812 0l17.411 10.616a27.502 27.502 0 0 0 18.579 3.685l20.111-3.164a11.305 11.305 0 0 1 10.938 4.534l11.969 16.455a27.514 27.514 0 0 0 15.76 10.545l19.8 4.792a11.303 11.303 0 0 1 8.359 8.359l4.791 19.799a27.51 27.51 0 0 0 10.546 15.763l16.451 11.966a11.297 11.297 0 0 1 4.533 10.939l-3.164 20.104a27.515 27.515 0 0 0 3.684 18.58l10.615 17.409a11.3 11.3 0 0 1 0 11.813z"/><path d="M350.416 168.997c-1.778-5.474-6.433-9.296-12.149-9.974l-48.551-5.757-20.478-44.395c-2.411-5.226-7.484-8.473-13.24-8.473-5.755 0-10.829 3.247-13.24 8.473l-20.478 44.396-48.551 5.757c-5.716.678-10.372 4.5-12.149 9.974-1.778 5.471-.258 11.3 3.966 15.207l35.895 33.195-9.528 47.954c-1.121 5.646 1.075 11.254 5.732 14.636 2.569 1.866 5.55 2.811 8.55 2.811 2.439 0 4.889-.624 7.14-1.884l42.662-23.879 42.662 23.879c5.023 2.812 11.034 2.457 15.691-.926s6.853-8.992 5.731-14.637l-9.528-47.953 35.895-33.195c4.226-3.907 5.746-9.735 3.968-15.209zm-54.134 39.623a8.07 8.07 0 0 0-2.436 7.496l9.75 49.071-43.658-24.437a8.065 8.065 0 0 0-7.882 0l-43.658 24.437 9.75-49.071a8.063 8.063 0 0 0-2.436-7.496l-36.732-33.97 49.686-5.891a8.071 8.071 0 0 0 6.377-4.632l20.955-45.431 20.955 45.431a8.07 8.07 0 0 0 6.377 4.632l49.684 5.891-36.732 33.97z"/></symbol><symbol viewBox="0 0 512 512" id="recommended" xmlns="http://www.w3.org/2000/svg"><path d="M392.327 226.071c0-16.209-13.186-29.394-29.395-29.394H308.91c13.125-14.753 21.703-31.552 23.36-46.623 1.012-9.205-1.832-18.342-7.805-25.069-5.459-6.149-12.924-9.576-21.02-9.651l-.281-.001c-7.831 0-15.181 3.016-20.728 8.512-5.548 5.497-8.618 12.82-8.654 20.635-.285 1.711-3.295 7.61-10.66 14.614-6.03 5.736-16.446 13.621-31.825 18.614-6.03 1.958-11.541 5.563-16.379 10.715a105.986 105.986 0 0 1-11.048 10.18 16.454 16.454 0 0 0-7.728-1.924h-51.307c-9.136 0-16.568 7.432-16.568 16.568v136.818c0 9.136 7.432 16.568 16.568 16.568h51.307c6.228 0 11.659-3.458 14.489-8.551h130.923c13.851 0 25.119-11.268 25.119-25.119 0-4.657-1.273-9.021-3.491-12.765 7.217-4.418 12.042-12.376 12.042-21.44 0-4.657-1.273-9.021-3.491-12.765 7.217-4.418 12.042-12.376 12.042-21.44a24.982 24.982 0 0 0-4.371-14.146c7.793-5.293 12.923-14.227 12.923-24.336zm-29.395 13.361h-4.276a8.017 8.017 0 0 0 0 16.034c5.01 0 9.086 4.076 9.086 9.086s-4.076 9.086-9.086 9.086h-8.551a8.017 8.017 0 0 0 0 16.034c5.01 0 9.086 4.076 9.086 9.086 0 5.01-4.076 9.086-9.086 9.086h-8.551a8.017 8.017 0 0 0 0 16.034c5.01 0 9.086 4.076 9.086 9.086 0 5.01-4.076 9.086-9.086 9.086H212.71v-77.495a8.017 8.017 0 0 0-16.034 0v85.511a.534.534 0 0 1-.534.534h-51.307a.534.534 0 0 1-.534-.534V213.244c0-.295.239-.534.534-.534h51.307c.295 0 .534.239.534.534v17.103a8.017 8.017 0 0 0 16.034 0v-17.103c0-.389-.032-.77-.059-1.152a121.724 121.724 0 0 0 13.954-12.695c2.967-3.161 6.211-5.327 9.642-6.44 18.87-6.126 31.569-15.99 38.898-23.186 9.186-9.019 14.669-18.421 14.669-25.152 0-3.556 1.387-6.889 3.906-9.385 2.55-2.527 5.927-3.862 9.576-3.867 4.494.042 7.47 2.341 9.177 4.263 2.926 3.295 4.366 8.033 3.857 12.672-1.751 15.929-14.49 35.619-32.454 50.161a8.018 8.018 0 0 0 5.044 14.247h74.01c7.368 0 13.361 5.993 13.361 13.361s-5.992 13.361-13.359 13.361z"/><path d="M170.489 316.306c-4.427 0-8.059 3.632-8.059 8.059s3.632 8.059 8.059 8.059 8.059-3.632 8.059-8.059c.001-4.426-3.631-8.059-8.059-8.059z"/><path d="M497.71 256l13.772-36.443a8.014 8.014 0 0 0-1.243-7.847l-24.359-30.404 1.836-38.915a8.017 8.017 0 0 0-3.606-7.078l-32.562-21.389-10.278-37.578a8.016 8.016 0 0 0-5.617-5.617l-37.578-10.278-21.389-32.561a8.027 8.027 0 0 0-7.078-3.606l-38.915 1.836-30.404-24.359a8.018 8.018 0 0 0-7.847-1.243L255.999 14.29 219.558.519a8.012 8.012 0 0 0-7.847 1.243l-30.404 24.359-38.915-1.836a8.001 8.001 0 0 0-7.078 3.606l-21.388 32.562-37.578 10.278a8.016 8.016 0 0 0-5.617 5.617l-10.278 37.578-32.562 21.388a8.016 8.016 0 0 0-3.606 7.078l1.836 38.915-24.359 30.404a8.018 8.018 0 0 0-1.243 7.847L14.29 256 .518 292.442a8.014 8.014 0 0 0 1.243 7.847l24.359 30.404-1.836 38.915a8.017 8.017 0 0 0 3.606 7.078l32.562 21.389 10.278 37.578a8.016 8.016 0 0 0 5.617 5.617l37.578 10.278 21.388 32.562a8.041 8.041 0 0 0 7.078 3.606l38.915-1.836 30.404 24.359a8.013 8.013 0 0 0 7.847 1.243L256 497.71l36.443 13.772a8.02 8.02 0 0 0 7.846-1.243l30.404-24.359 38.915 1.836a8.025 8.025 0 0 0 7.078-3.606l21.389-32.562 37.578-10.278a8.016 8.016 0 0 0 5.617-5.617l10.278-37.578 32.562-21.389a8.016 8.016 0 0 0 3.606-7.078l-1.836-38.915 24.359-30.404a8.018 8.018 0 0 0 1.243-7.847L497.71 256zm-16.069 2.834l13.226 34.999-23.394 29.199a8.014 8.014 0 0 0-1.752 5.39l1.764 37.373-31.271 20.541a8.017 8.017 0 0 0-3.332 4.586l-9.871 36.089-36.089 9.871a8.022 8.022 0 0 0-4.586 3.332l-20.541 31.271-37.373-1.764a8.023 8.023 0 0 0-5.39 1.752l-29.199 23.394-34.999-13.226a8.018 8.018 0 0 0-5.668 0l-34.999 13.226-29.199-23.394a8.03 8.03 0 0 0-5.39-1.752l-37.373 1.764-20.541-31.271a8.017 8.017 0 0 0-4.586-3.332l-36.089-9.871-9.871-36.089a8.022 8.022 0 0 0-3.332-4.586l-31.271-20.541 1.764-37.373a8.012 8.012 0 0 0-1.752-5.39l-23.394-29.199 13.227-34.999a8.019 8.019 0 0 0 0-5.668l-13.227-34.999 23.394-29.199a8.014 8.014 0 0 0 1.752-5.39l-1.764-37.373 31.271-20.541a8.017 8.017 0 0 0 3.332-4.586l9.871-36.089 36.089-9.871a8.022 8.022 0 0 0 4.586-3.332l20.541-31.271 37.373 1.764a8.022 8.022 0 0 0 5.39-1.752l29.199-23.394 34.999 13.227c1.827.69 3.842.69 5.668 0l34.999-13.227 29.199 23.394a8.01 8.01 0 0 0 5.39 1.752l37.373-1.764 20.541 31.271a8.017 8.017 0 0 0 4.586 3.332l36.089 9.871 9.871 36.089a8.022 8.022 0 0 0 3.332 4.586l31.271 20.541-1.764 37.373a8.012 8.012 0 0 0 1.752 5.39l23.394 29.199-13.227 34.999a8.024 8.024 0 0 0 .001 5.668z"/><path d="M406.634 117.574a209.24 209.24 0 0 0-12.573-12.573 8.017 8.017 0 0 0-11.327.484 8.016 8.016 0 0 0 .484 11.327c2.003 1.84 3.997 3.75 5.925 5.678a194.67 194.67 0 0 1 5.679 5.926 7.996 7.996 0 0 0 5.908 2.595c1.937 0 3.88-.698 5.419-2.111a8.015 8.015 0 0 0 .485-11.326zm-41.042-34.449c-38.66-24.63-85.206-35.576-131.059-30.829-46.525 4.82-90.395 25.722-123.531 58.857-36.467 36.467-57.699 84.911-59.785 136.408-2.073 51.194 14.883 100.898 47.746 139.954a7.998 7.998 0 0 0 6.139 2.855 8.017 8.017 0 0 0 6.13-13.177c-30.281-35.989-45.905-81.795-43.995-128.982 1.922-47.462 21.49-92.11 55.101-125.72 30.54-30.541 70.972-49.806 113.846-54.247 42.275-4.38 85.171 5.709 120.792 28.403a8.016 8.016 0 0 0 11.068-2.453 8.017 8.017 0 0 0-2.452-11.069zm62.919 62.918a8.017 8.017 0 1 0-13.522 8.614c22.694 35.622 32.781 78.52 28.403 120.792-4.441 42.874-23.706 83.305-54.246 113.847-33.611 33.61-78.259 53.179-125.72 55.101-47.179 1.918-92.994-13.713-128.982-43.993a8.016 8.016 0 0 0-11.295.973 8.016 8.016 0 0 0 .973 11.295c36.921 31.065 83.351 47.917 131.566 47.916 2.789 0 5.589-.057 8.389-.17 51.497-2.085 99.94-23.317 136.408-59.784 33.136-33.136 54.039-77.007 58.857-123.532 4.748-45.856-6.201-92.4-30.831-131.059z"/></symbol><symbol viewBox="0 0 492.004 492.004" id="right-arrow" xmlns="http://www.w3.org/2000/svg"><path d="M382.678 226.804L163.73 7.86C158.666 2.792 151.906 0 144.698 0s-13.968 2.792-19.032 7.86l-16.124 16.12c-10.492 10.504-10.492 27.576 0 38.064L293.398 245.9l-184.06 184.06c-5.064 5.068-7.86 11.824-7.86 19.028 0 7.212 2.796 13.968 7.86 19.04l16.124 16.116c5.068 5.068 11.824 7.86 19.032 7.86s13.968-2.792 19.032-7.86L382.678 265c5.076-5.084 7.864-11.872 7.848-19.088.016-7.244-2.772-14.028-7.848-19.108z"/></symbol><symbol viewBox="0 0 512 512" id="search" xmlns="http://www.w3.org/2000/svg"><path d="M495 466.2L377.2 348.4c29.2-35.6 46.8-81.2 46.8-130.9C424 103.5 331.5 11 217.5 11 103.4 11 11 103.5 11 217.5S103.4 424 217.5 424c49.7 0 95.2-17.5 130.8-46.7L466.1 495c8 8 20.9 8 28.9 0 8-7.9 8-20.9 0-28.8zm-277.5-83.3C126.2 382.9 52 308.7 52 217.5S126.2 52 217.5 52C308.7 52 383 126.3 383 217.5s-74.3 165.4-165.5 165.4z"/></symbol><symbol viewBox="0 0 489 489" id="shopping-bag" xmlns="http://www.w3.org/2000/svg"><path d="M440.1 422.7l-28-315.3c-.6-7-6.5-12.3-13.4-12.3h-57.6C340.3 42.5 297.3 0 244.5 0s-95.8 42.5-96.6 95.1H90.3c-7 0-12.8 5.3-13.4 12.3l-28 315.3c0 .4-.1.8-.1 1.2 0 35.9 32.9 65.1 73.4 65.1h244.6c40.5 0 73.4-29.2 73.4-65.1 0-.4 0-.8-.1-1.2zM244.5 27c37.9 0 68.8 30.4 69.6 68.1H174.9c.8-37.7 31.7-68.1 69.6-68.1zm122.3 435H122.2c-25.4 0-46-16.8-46.4-37.5l26.8-302.3h45.2v41c0 7.5 6 13.5 13.5 13.5s13.5-6 13.5-13.5v-41h139.3v41c0 7.5 6 13.5 13.5 13.5s13.5-6 13.5-13.5v-41h45.2l26.9 302.3c-.4 20.7-21.1 37.5-46.4 37.5z"/></symbol><symbol viewBox="0 0 53.867 53.867" id="star" xmlns="http://www.w3.org/2000/svg"><path d="M26.934 1.318l8.322 16.864 18.611 2.705L40.4 34.013l3.179 18.536-16.645-8.751-16.646 8.751 3.179-18.536L0 20.887l18.611-2.705z"/></symbol><symbol viewBox="0 0 512 512" id="tag" xmlns="http://www.w3.org/2000/svg"><path d="M512 34.88c.039-9.349-3.569-18.126-10.159-24.716S486.457-.028 477.126.006c-9.322.039-18.098 3.702-24.711 10.314-2.8 2.8-7.893 8.848-10.679 12.205a8.294 8.294 0 0 0 1.083 11.68 8.294 8.294 0 0 0 11.68-1.083c4.364-5.256 7.971-9.395 9.646-11.071 3.498-3.497 8.132-5.435 13.05-5.456h.079c4.862 0 9.419 1.88 12.837 5.299 3.437 3.437 5.32 8.024 5.299 12.916-.021 4.917-1.959 9.551-5.456 13.05-3.131 3.131-13.893 11.668-29.312 22.439-9.121-15.594-26.037-26.099-45.37-26.099H293.808c-16.396 0-31.81 6.385-43.405 17.978L7.613 304.971C2.704 309.88 0 316.407 0 323.349s2.704 13.47 7.613 18.378L170.28 504.394c5.068 5.067 11.722 7.6 18.378 7.6 6.656 0 13.312-2.534 18.378-7.6l242.792-242.791c11.593-11.594 17.978-27.008 17.978-43.405V96.735c0-3.585-.363-7.085-1.051-10.47 17.551-12.077 30.435-22.18 34.929-26.674 6.614-6.612 10.277-15.388 10.316-24.711zm-60.783 183.318c0 11.965-4.66 23.214-13.119 31.673L195.306 492.664c-3.664 3.665-9.63 3.665-13.295 0L19.344 329.997c-1.775-1.775-2.754-4.136-2.754-6.648s.978-4.872 2.754-6.647L262.135 73.911c8.461-8.46 19.709-13.119 31.673-13.119h121.463c13.64 0 25.53 7.637 31.618 18.859a672.558 672.558 0 0 1-32.408 20.171 35.31 35.31 0 0 0-1.119-1.177c-13.584-13.584-35.686-13.584-49.27 0-13.584 13.584-13.584 35.686 0 49.27 6.792 6.792 15.714 10.187 24.635 10.187 8.921 0 17.843-3.395 24.635-10.187 9.067-9.067 12.072-21.926 9.036-33.517a696.517 696.517 0 0 0 28.815-17.743l.003.081v121.462zm-69.898-91.191a8.294 8.294 0 0 0 11.139 3.682 519.856 519.856 0 0 0 14.504-7.596c.048 4.735-1.722 9.485-5.328 13.091-7.116 7.115-18.692 7.115-25.808 0-7.115-7.116-7.115-18.692 0-25.808a18.191 18.191 0 0 1 12.904-5.336c3.7 0 7.389 1.134 10.536 3.363a509.19 509.19 0 0 1-14.263 7.468 8.29 8.29 0 0 0-3.684 11.136z"/><path d="M247.162 168.962a8.295 8.295 0 0 0-8.295 8.295v175.179a8.295 8.295 0 0 0 16.59 0V177.257a8.295 8.295 0 0 0-8.295-8.295zm-37.931 71.251c-13.583-13.586-35.686-13.585-49.268-.001-13.584 13.584-13.584 35.686 0 49.27 6.793 6.793 15.713 10.188 24.635 10.187 8.92 0 17.843-3.397 24.634-10.187 6.581-6.581 10.205-15.329 10.205-24.635s-3.625-18.055-10.206-24.634zm-11.73 37.537c-7.116 7.116-18.692 7.115-25.807 0-7.115-7.116-7.115-18.692 0-25.808 3.558-3.558 8.231-5.336 12.904-5.336s9.346 1.778 12.904 5.336a18.128 18.128 0 0 1 5.345 12.904 18.133 18.133 0 0 1-5.346 12.904zm136.859-37.538c-13.584-13.585-35.687-13.584-49.268 0-13.584 13.584-13.584 35.686 0 49.27 6.792 6.792 15.713 10.187 24.635 10.187 8.921 0 17.843-3.395 24.634-10.187 13.583-13.584 13.583-35.686-.001-49.27zm-11.731 37.538c-7.116 7.116-18.692 7.115-25.807 0-7.115-7.116-7.115-18.692 0-25.808 3.558-3.558 8.231-5.336 12.904-5.336s9.346 1.778 12.904 5.336c7.115 7.116 7.115 18.692-.001 25.808z"/></symbol><symbol viewBox="0 0 64 64" id="up-arrow" xmlns="http://www.w3.org/2000/svg"><path d="M3.352 48.296l28.56-28.328 28.58 28.347c.397.394.917.59 1.436.59.52 0 1.04-.196 1.436-.59a2.003 2.003 0 0 0 0-2.849l-29.98-29.735c-.2-.2-.494-.375-.757-.475a2.052 2.052 0 0 0-2.166.456L.479 45.447a2.003 2.003 0 0 0 0 2.849 2.045 2.045 0 0 0 2.873 0z"/></symbol><symbol viewBox="0 0 512 512" id="user" xmlns="http://www.w3.org/2000/svg"><path d="M437.02 330.98c-27.883-27.882-61.071-48.523-97.281-61.018C378.521 243.251 404 198.548 404 148 404 66.393 337.607 0 256 0S108 66.393 108 148c0 50.548 25.479 95.251 64.262 121.962-36.21 12.495-69.398 33.136-97.281 61.018C26.629 379.333 0 443.62 0 512h40c0-119.103 96.897-216 216-216s216 96.897 216 216h40c0-68.38-26.629-132.667-74.98-181.02zM256 256c-59.551 0-108-48.448-108-108S196.449 40 256 40s108 48.448 108 108-48.449 108-108 108z"/></symbol><symbol viewBox="0 0 334.877 334.877" id="wallet" xmlns="http://www.w3.org/2000/svg"><path d="M333.196 155.999h-16.067V82.09c0-17.719-14.415-32.134-32.134-32.134h-21.761L240.965 9.917a19.28 19.28 0 0 0-26.222-7.488l-85.464 47.526H33.815c-17.719 0-32.134 14.415-32.134 32.134v220.653c0 17.719 14.415 32.134 32.134 32.134h251.18c17.719 0 32.134-14.415 32.134-32.134V237.94h16.067v-81.941zm-48.201-93.19c9.897 0 17.982 7.519 19.068 17.14h-24.152l-9.525-17.14h14.609zm-63.999-49.146c3.014-1.69 7.07-.508 8.734 2.494l35.476 63.786H101.798l119.198-66.28zm83.279 289.079c0 10.63-8.651 19.281-19.281 19.281H33.815c-10.63 0-19.281-8.651-19.281-19.281V82.09c0-10.63 8.651-19.281 19.281-19.281h72.353L75.345 79.95H37.832c-3.554 0-6.427 2.879-6.427 6.427s2.873 6.427 6.427 6.427h266.443v63.201h-46.999c-21.826 0-39.589 17.764-39.589 39.589v2.764c0 21.826 17.764 39.589 39.589 39.589h46.999v64.795zm16.067-77.655h-63.066c-14.743 0-26.736-11.992-26.736-26.736v-2.764c0-14.743 11.992-26.736 26.736-26.736h63.066v56.236zm-43.381-27.59c0 7.841-6.35 14.19-14.19 14.19-7.841 0-14.19-6.35-14.19-14.19s6.35-14.19 14.19-14.19c7.841-.001 14.19 6.355 14.19 14.19z"/></symbol></svg>