<svg xmlns="http://www.w3.org/2000/svg" xmlns:xlink="http://www.w3.org/1999/xlink" width="48" height="41" viewBox="0 0 48 41"><defs><path id="vlyaa" d="M575.97 1174.17c5.97 0 10.81 4.43 10.81 9.9 0 2.8-1.28 5.33-3.33 7.13L566 1207.86l-17.77-16.94a9.44 9.44 0 0 1-3.01-6.85c0-5.47 4.84-9.9 10.8-9.9 4.5 0 8.35 2.76 9.98 6.33a10.74 10.74 0 0 1 9.95-6.35c4.77 0 .02.02.02.02zm-9.97 1.54c-2.5-3.08-6.38-4.7-10.6-4.7-7.39 0-13.4 5.72-13.4 12.76 0 3.3 1.33 6.44 3.74 8.83l18.9 18.08 1.36 1.3 1.36-1.3 18.54-17.74c2.63-2.4 4.1-5.67 4.1-9.17 0-7.04-6.01-12.76-13.4-12.76-4.23 0-8.1 1.62-10.6 4.7z"/></defs><g><g transform="translate(-542 -1171)"><use fill="#6f6f6f" xlink:href="#vlyaa"/></g></g></svg>