<svg xmlns="http://www.w3.org/2000/svg" xmlns:xlink="http://www.w3.org/1999/xlink" width="38" height="61" viewBox="0 0 38 61"><defs><path id="rk89a" d="M700 5095.19h30a4 4 0 0 1 4 4v52.02a4 4 0 0 1-4 4h-30a4 4 0 0 1-4-4v-52.02a4 4 0 0 1 4-4zm-2 4v44.02h29a1 1 0 1 1 0 2h-29v6c0 1.1.9 2 2 2h30a2 2 0 0 0 2-2v-44.02h-29a1 1 0 0 1 0-2h29v-6a2 2 0 0 0-2-2h-30a2 2 0 0 0-2 2z"/><path id="rk89b" d="M715 5147.2a2 2 0 1 1 0 4 2 2 0 0 1 0-4zm-3-47.01h6a1 1 0 0 1 0 2h-6a1 1 0 0 1 0-2zm-9.72 15.36l4.08-4.07a.96.96 0 0 1 1.36 1.36l-4.08 4.07a.96.96 0 1 1-1.36-1.36zm0 6l10.08-10.07a.96.96 0 0 1 1.36 1.36l-10.08 10.07a.96.96 0 0 1-1.36-1.35z"/></defs><g><g transform="translate(-696 -5095)"><use fill="#6f6f6f" xlink:href="#rk89a"/></g><g transform="translate(-696 -5095)"><use fill="#e8be7b" xlink:href="#rk89b"/></g></g></svg>