<svg xmlns="http://www.w3.org/2000/svg" xmlns:xlink="http://www.w3.org/1999/xlink" width="34" height="40" viewBox="0 0 34 40"><defs><path id="ntzpa" d="M783 1212v-18.67h5.23v-10.67h10.48l-4.22-4.34a3.76 3.76 0 0 1-.43-4.6h-.03.03a3.62 3.62 0 0 1 3.06-1.72c1.14 0 2.2.48 2.88 1.38a3.54 3.54 0 0 1 2.88-1.38c1.29 0 2.4.68 3.06 1.71h.03-.03a3.76 3.76 0 0 1-.52 4.71l-4.13 4.24h10.48v10.67H817V1212zm14.54-37.32l-.29.02h.45l-.16-.02zm4.83 0l-.18.02h.5l-.32-.02zm1.55 1.7c0-.65-.22-1.6-1.22-1.68h-.51c-.67.1-1.2.48-2.19 1.34-1-.78-1.7-1.25-2.3-1.34h-.46c-1.01.09-1.2 1.27-1.16 1.71.07.68.47.86.85 1.26l3.07 3.08 2.94-2.91c.41-.4.98-.83.98-1.46zm5.23 8.95h-18.3v8h18.3zm5.23 10.67h-28.76v6.6a3.3 3.3 0 0 0 3.94-3.28c-.01-.3-.05-.65-.01-.66h2.61c-.05 0 0 .41 0 .67a3.3 3.3 0 0 0 3.26 3.33 3.3 3.3 0 0 0 3.26-3.33c0-.31-.04-.66 0-.67H801.28c-.04 0 0 .41 0 .67a3.3 3.3 0 0 0 3.26 3.33 3.3 3.3 0 0 0 3.26-3.33c0-.31-.04-.66 0-.67h2.61c-.04 0 0 .41 0 .67a3.3 3.3 0 0 0 3.26 3.33c.28 0 .5-.06.71-.16zm0 9.24c-.2.05-.44.09-.71.09a5.8 5.8 0 0 1-4.57-2.23 5.8 5.8 0 0 1-9.12 0 5.8 5.8 0 0 1-9.13 0 5.8 5.8 0 0 1-4.56 2.23c-.27 0-.46-.04-.67-.06v4.06h28.76z"/></defs><g><g transform="translate(-783 -1172)"><use fill="#6f6f6f" xlink:href="#ntzpa"/></g></g></svg>